<svg width="99" height="100" viewBox="0 0 99 100" fill="none" xmlns="http://www.w3.org/2000/svg">
<g id="Group 1204">
<g id="Group 200">
<path id="Union" fill-rule="evenodd" clip-rule="evenodd" d="M49.0164 4.1852C43.3553 0.92057 29.1666 -3.39717 15.4011 4.34594C13.5791 5.43911 10.8097 8.17205 14.3079 10.3584C15.6208 11.179 16.1453 11.5068 16.1033 11.7265C16.0056 12.2386 12.8309 12.1636 9.38859 16.3709C4.46926 22.3834 -2.08984 39.3278 0.643121 51.3528C2.41927 59.1678 3.27194 56.3632 4.25143 53.1414C4.77909 51.4058 5.34354 49.5491 6.10899 49.1664C6.85201 48.7949 6.77437 50.0016 6.62695 52.293C6.34057 56.7442 5.79084 65.2887 10.4817 74.3096C17.5874 87.9744 25.2397 90.7074 25.2397 85.2415C25.2397 81.9405 26.0371 83.4239 27.2707 85.7189C28.0798 87.224 29.0765 89.0783 30.159 90.1608C32.8411 92.8428 39.208 99.2097 48.7431 99.9627V99.9995C48.8345 99.9944 48.9256 99.9888 49.0164 99.9827C49.1073 99.9888 49.1983 99.9944 49.2897 99.9995V99.9627C58.8249 99.2097 65.1918 92.8428 67.8738 90.1608C68.9563 89.0783 69.9531 87.224 70.7622 85.7189C71.9958 83.4239 72.7932 81.9405 72.7932 85.2415C72.7932 90.7074 80.4454 87.9744 87.5511 74.3096C92.242 65.2887 91.6923 56.7442 91.4059 52.293C91.2585 50.0016 91.1809 48.7949 91.9239 49.1664C92.6893 49.5491 93.2538 51.4058 93.7814 53.1414C94.7609 56.3632 95.6136 59.1678 97.3897 51.3528C100.123 39.3278 93.5636 22.3834 88.6443 16.3709C85.2019 12.1636 82.0273 12.2386 81.9295 11.7265C81.8876 11.5068 82.4121 11.179 83.725 10.3584C87.2232 8.17205 84.4538 5.43911 82.6318 4.34594C68.8663 -3.39717 54.6775 0.92057 49.0164 4.1852Z" fill="#FF872D"/>
<path id="Union_2" fill-rule="evenodd" clip-rule="evenodd" d="M49.0177 22.2066C44.1304 19.1262 33.0818 15.0876 25.7875 22.3819C16.5369 31.6325 8.3698 74.4697 48.7446 74.8522V74.8547C48.8359 74.8547 48.9269 74.8545 49.0177 74.8541C49.1086 74.8545 49.1996 74.8547 49.2909 74.8547V74.8522C89.6657 74.4697 81.4986 31.6325 72.248 22.3819C64.9536 15.0876 53.905 19.1262 49.0177 22.2066Z" fill="#FAD17B"/>
<circle id="Ellipse 17" cx="40.9947" cy="36.6219" r="2.73296" fill="#482B14"/>
<circle id="Ellipse 18" cx="56.2999" cy="36.6219" r="2.73296" fill="#482B14"/>
<g id="Group 1197">
<path id="Union_3" fill-rule="evenodd" clip-rule="evenodd" d="M48.6686 43.7384C45.6329 43.6357 40.4492 44.1569 40.4492 47.0431C40.4492 50.8692 46.4617 53.0556 48.6481 53.0556C48.655 53.0556 48.6618 53.0555 48.6686 53.0553C48.6754 53.0555 48.6822 53.0556 48.6891 53.0556C50.8754 53.0556 56.888 50.8692 56.888 47.0431C56.888 44.1569 51.7043 43.6357 48.6686 43.7384Z" fill="#985B2D"/>
<path id="Vector 35 (Stroke)" fill-rule="evenodd" clip-rule="evenodd" d="M48.6484 50.9277C49.2007 50.9277 49.6484 51.3754 49.6484 51.9277V57.3937C49.6484 57.9459 49.2007 58.3937 48.6484 58.3937C48.0962 58.3937 47.6484 57.9459 47.6484 57.3937V51.9277C47.6484 51.3754 48.0962 50.9277 48.6484 50.9277Z" fill="#985B2D"/>
<path id="Vector 36 (Stroke)" fill-rule="evenodd" clip-rule="evenodd" d="M41.3808 55.0448C41.7713 54.6543 42.4045 54.6543 42.795 55.0448C43.5951 55.8449 45.9429 57.4849 48.647 57.4849C51.3511 57.4849 53.6989 55.8449 54.499 55.0448C54.8895 54.6543 55.5227 54.6543 55.9132 55.0448C56.3037 55.4354 56.3037 56.0685 55.9132 56.4591C54.8913 57.4809 52.0648 59.4849 48.647 59.4849C45.2292 59.4849 42.4027 57.4809 41.3808 56.4591C40.9903 56.0685 40.9903 55.4354 41.3808 55.0448Z" fill="#985B2D"/>
</g>
</g>
<path id="Union_4" fill-rule="evenodd" clip-rule="evenodd" d="M43.1554 31.9439C41.3115 31.6745 39.3041 31.3812 37.5 31.1558C33.4522 30.6502 24.6667 31.3332 20.5 31.9999L19.5 35.5C20.5 35.8333 23 36.756 23 39.156C23 39.3803 22.9944 39.6241 22.9885 39.8839C22.9148 43.0998 22.7849 48.7682 32.5 50.156C41.5052 51.4425 44.2583 43.5347 45.4905 39.9954C45.695 39.4079 45.8576 38.9408 46 38.656C46.8 37.056 48 36.656 48.5 36.656C49 36.656 50.2 37.056 51 38.656C51.1424 38.9408 51.305 39.4079 51.5095 39.9954C52.7417 43.5347 55.4948 51.4425 64.5 50.156C74.2151 48.7682 74.0852 43.0998 74.0115 39.8839C74.0056 39.6241 74 39.3803 74 39.156C74 36.756 77.5 35.3334 78.5 35L77.5 32.0002C73.3333 31.3335 63.5478 30.6502 59.5 31.1558C57.6959 31.3812 55.6885 31.6745 53.8446 31.9439C51.6001 32.2718 49.598 32.5643 48.5 32.6558C47.402 32.5643 45.3999 32.2718 43.1554 31.9439Z" fill="#303030"/>
<path id="Vector 616" d="M35.5003 33.1543C40.7003 33.1543 43.0003 34.821 43.5003 35.6543C44.5007 37.1543 43 42.6543 40 45.6543C37 48.6543 33.0003 48.1543 29.0003 46.6543C25.0003 45.1543 25.5003 38.6543 26.0003 35.6543C26.5003 32.6543 29.0003 33.1543 35.5003 33.1543Z" fill="#212121"/>
<path id="Vector 619" d="M35.5003 33.1543C40.7003 33.1543 43.0003 34.821 43.5003 35.6543C44.5007 37.1543 43 42.6543 40 45.6543C37 48.6543 33.0003 48.1543 29.0003 46.6543C25.0003 45.1543 25.5003 38.6543 26.0003 35.6543C26.5003 32.6543 29.0003 33.1543 35.5003 33.1543Z" fill="url(#paint0_linear_5_1988)"/>
<path id="Vector 620" d="M61.3083 33.0312C56.1083 33.0312 53.8083 34.6979 53.3083 35.5312C52.3079 37.0312 53.8086 42.5312 56.8086 45.5312C59.8086 48.5312 63.8083 48.0312 67.8083 46.5312C71.8083 45.0312 71.3083 38.5312 70.8083 35.5312C70.3083 32.5312 67.8083 33.0312 61.3083 33.0312Z" fill="url(#paint1_linear_5_1988)"/>
</g>
<defs>
<linearGradient id="paint0_linear_5_1988" x1="34.738" y1="33.123" x2="34.738" y2="47.8471" gradientUnits="userSpaceOnUse">
<stop stop-color="#636363"/>
<stop offset="1" stop-color="#212121" stop-opacity="0"/>
</linearGradient>
<linearGradient id="paint1_linear_5_1988" x1="62.0706" y1="33" x2="62.0706" y2="47.724" gradientUnits="userSpaceOnUse">
<stop stop-color="#636363"/>
<stop offset="1" stop-color="#212121" stop-opacity="0"/>
</linearGradient>
</defs>
</svg>
