<svg width="46" height="46" viewBox="0 0 46 46" fill="none" xmlns="http://www.w3.org/2000/svg">
<path fill-rule="evenodd" clip-rule="evenodd" d="M23.1838 5.63798C25.3994 4.36028 30.9525 2.67044 36.34 5.7009C37.0531 6.12874 38.137 7.19834 36.7679 8.05403C36.254 8.37517 36.0488 8.50348 36.0652 8.58947C36.1034 8.78991 37.3459 8.76054 38.6932 10.4072C40.6185 12.7603 43.1855 19.3919 42.1159 24.0982C41.4208 27.1568 41.0871 26.0592 40.7037 24.7982C40.4972 24.119 40.2763 23.3923 39.9767 23.2425C39.6859 23.0971 39.7163 23.5694 39.774 24.4662C39.8861 26.2083 40.1012 29.5524 38.2653 33.083C35.4843 38.431 32.4894 39.5007 32.4894 37.3614C32.4894 36.0695 32.1773 36.6501 31.6945 37.5483C31.3779 38.1374 30.9878 38.8631 30.5641 39.2867C29.5144 40.3364 27.0226 42.8282 23.2908 43.123V43.1374C23.255 43.1354 23.2193 43.1332 23.1838 43.1308C23.1482 43.1332 23.1126 43.1354 23.0768 43.1373V43.123C19.345 42.8283 16.8532 40.3364 15.8035 39.2867C15.3798 38.8631 14.9897 38.1374 14.6731 37.5483C14.1903 36.6501 13.8782 36.0695 13.8782 37.3614C13.8782 39.5007 10.8833 38.4311 8.10229 33.083C6.26639 29.5524 6.48154 26.2083 6.59363 24.4662C6.65132 23.5694 6.68171 23.0971 6.39091 23.2425C6.09133 23.3923 5.87042 24.119 5.66391 24.7982C5.28056 26.0592 4.94684 27.1569 4.2517 24.0982C3.18209 19.3919 5.74916 12.7603 7.67446 10.4072C9.02172 8.76055 10.2642 8.78991 10.3025 8.58948C10.3189 8.50348 10.1136 8.37518 9.59976 8.05404C8.23065 7.19835 9.31453 6.12874 10.0276 5.7009C15.4151 2.67045 20.9682 4.36028 23.1838 5.63798Z" fill="#FF872D"/>
<path fill-rule="evenodd" clip-rule="evenodd" d="M23.1837 12.6911C21.271 11.4855 16.9467 9.9048 14.0919 12.7597C10.4714 16.3801 7.27501 33.1456 23.0768 33.2952V33.2963C23.1131 33.2963 23.1492 33.2962 23.1853 33.296C23.2203 33.2962 23.2554 33.2962 23.2905 33.2962V33.2952C39.0924 33.1456 35.8959 16.3801 32.2755 12.7597C29.4206 9.90482 25.0964 11.4855 23.1837 12.6911Z" fill="#FAD17B"/>
<circle cx="20.0437" cy="18.3327" r="1.06961" fill="#482B14"/>
<circle cx="26.0337" cy="18.3327" r="1.06961" fill="#482B14"/>
<path fill-rule="evenodd" clip-rule="evenodd" d="M23.0473 21.118C21.8593 21.0778 19.8303 21.2818 19.8303 22.4114C19.8303 23.9089 22.1835 24.7646 23.0392 24.7646C23.0418 24.7646 23.0444 24.7645 23.047 24.7644C23.0497 24.7645 23.0524 24.7646 23.0552 24.7646C23.9109 24.7646 26.264 23.9089 26.264 22.4114C26.264 21.2819 24.2354 21.0779 23.0473 21.118Z" fill="#985B2D"/>
<path fill-rule="evenodd" clip-rule="evenodd" d="M23.0393 23.9318C23.2555 23.9318 23.4307 24.107 23.4307 24.3231V26.4624C23.4307 26.6785 23.2555 26.8537 23.0393 26.8537C22.8232 26.8537 22.6479 26.6785 22.6479 26.4624V24.3231C22.6479 24.107 22.8232 23.9318 23.0393 23.9318Z" fill="#985B2D"/>
<path fill-rule="evenodd" clip-rule="evenodd" d="M20.1945 25.5431C20.3473 25.3903 20.5951 25.3903 20.748 25.5431C21.0611 25.8562 21.98 26.4981 23.0383 26.4981C24.0966 26.4981 25.0155 25.8562 25.3286 25.5431C25.4814 25.3903 25.7293 25.3903 25.8821 25.5431C26.0349 25.6959 26.0349 25.9437 25.8821 26.0966C25.4822 26.4965 24.3759 27.2808 23.0383 27.2808C21.7007 27.2808 20.5944 26.4965 20.1945 26.0966C20.0416 25.9437 20.0416 25.6959 20.1945 25.5431Z" fill="#985B2D"/>
</svg>
